# xmcd
#
# Track frame offsets:
#	150
#	13046
#	24218
#	38917
#	52995
#	66490
#	79637
#	93766
#	107607
#	121367
#	134338
#	147485
#	160935
#	172729
#	185130
#	196663
#	208577
#	220202
#	231833
#	242397
#	253779
#	264762
#	277002
#	291879
#	304745
#
# Disc length: 4259 seconds
# Revision: 1
# Processed by: cddbd v1.5.2PL0 Copyright (c) Steve Scherf et al.
# Submitted via: dBpowerAMP V12.0
#
DISCID=5d10a119
DTITLE=Lefty Perkins - Wizards of Country Guitar: Selected Sides 1935-1955, CD02 - CD04
DYEAR=2011
DGENRE=Country
TTITLE0=Bring It on Down to My House Honey
TTITLE1=How Come You Do Me Like You Do
TTITLE2=High Geared Daddy
TTITLE3=Honky Tonk Blues
TTITLE4=I Can't Give You Anything But Love
TTITLE5=Confessin' (That I Love You)
TTITLE6=There'll Be Some Changes Made
TTITLE7=The One Rose
TTITLE8=Long Long Ago
TTITLE9=Everybody Loves My Marguerite
TTITLE10=I Just Want Your Stingaree
TTITLE11=Rose Room
TTITLE12=Louise, Louise Blues
TTITLE13=Cross Patch
TTITLE14=Boyd's Tin Roof Blues
TTITLE15=Frosty Mornin'
TTITLE16=Goofus
TTITLE17=Beale Street Blues
TTITLE18=I've Got Those Oklahoma Blues
TTITLE19=Must I Hesitate?
TTITLE20=Lone Star
TTITLE21=River Blues
TTITLE22=Wah Hoo
TTITLE23=Cross Eyed Gal on the Hill
TTITLE24=Eyes of Texas
EXTD=
EXTT0=
EXTT1=
EXTT2=
EXTT3=
EXTT4=
EXTT5=
EXTT6=
EXTT7=
EXTT8=
EXTT9=
EXTT10=
EXTT11=
EXTT12=
EXTT13=
EXTT14=
EXTT15=
EXTT16=
EXTT17=
EXTT18=
EXTT19=
EXTT20=
EXTT21=
EXTT22=
EXTT23=
EXTT24=
PLAYORDER=
